<svg xmlns="http://www.w3.org/2000/svg" viewBox="0 0 30 24.97"><defs><style>.cls-1{fill:#fff;}</style></defs><title>home-icon_1</title><g id="Layer_2" data-name="Layer 2"><g id="Layer_1-2" data-name="Layer 1"><path class="cls-1" d="M11.55,25H6.63L4.45,14.72,2.18,17.17,0,15,15,0,30,15l-2.11,2.1-2.23-2.34c-.74,3.47-1.47,6.81-2.2,10.2h-5c.09-1,.18-1.91.28-2.85.14-1.29.29-2.57.42-3.85a4.15,4.15,0,0,0-8.08-1.5A5.88,5.88,0,0,0,11,19.44c.19,1.65.37,3.3.55,4.95A5.41,5.41,0,0,1,11.55,25Z"/></g></g></svg>